<?xml version="1.0" encoding="UTF-8"?>
<svg id="Layer_1" data-name="Layer 1" xmlns="http://www.w3.org/2000/svg" viewBox="0 0 1000 1000">
  <defs>
    <style>
      .cls-1 {
        fill: #c2d9ff;
      }

      .cls-2 {
        fill: #190482;
      }

      .cls-3, .cls-4 {
        stroke-linecap: round;
      }

      .cls-3, .cls-4, .cls-5 {
        fill: none;
        stroke: #c2d9ff;
        stroke-width: 37px;
      }

      .cls-3, .cls-5 {
        stroke-linejoin: round;
      }

      .cls-4 {
        stroke-miterlimit: 10;
      }
    </style>
  </defs>
  <rect class="cls-2" x=".32" y="-.44" width="1000" height="1000"/>
  <g>
    <g>
      <path class="cls-1" d="m512.46,592.53v-181.45c0-3.83-1.33-5.75-3.98-5.75-1.62,0-3.17.74-4.65,2.21l-19.92,20.36c-4.13,3.69-8.63,5.53-13.5,5.53-5.17,0-9.55-1.73-13.17-5.2-3.62-3.46-5.42-7.78-5.42-12.95,0-6.2,1.62-10.92,4.87-14.16l60.85-60.63c3.39-3.39,8.04-5.09,13.94-5.09,5.16,0,9.48,1.81,12.95,5.42,3.47,3.62,5.2,8,5.2,13.17v238.55c0,6.34,2.25,11.77,6.75,16.26,4.5,4.5,9.99,6.75,16.49,6.75h19.03c5.16,0,9.55,1.81,13.17,5.42,3.61,3.62,5.42,8,5.42,13.17s-1.81,9.55-5.42,13.17c-3.62,3.62-8,5.42-13.17,5.42h-121.49c-5.17,0-9.55-1.8-13.17-5.42-3.62-3.61-5.42-8-5.42-13.17s1.8-9.55,5.42-13.17c3.61-3.61,8-5.42,13.17-5.42h19.03c6.49,0,11.95-2.25,16.38-6.75,4.43-4.5,6.64-9.92,6.64-16.26Z"/>
      <path class="cls-1" d="m728.84,509.55v124.58c0,5.17-1.74,9.55-5.2,13.17-3.47,3.62-7.78,5.42-12.95,5.42-5.46,0-10-1.8-13.61-5.42-3.62-3.61-5.42-8-5.42-13.17v-140.07c0-5.31,1.69-9.66,5.09-13.06l70.59-71.25c3.98-3.98,5.97-8.19,5.97-12.61v-1.33c0-6.34-2.25-11.8-6.75-16.38-4.5-4.57-9.92-6.86-16.26-6.86h-121.49c-5.17,0-9.55-1.8-13.17-5.42-3.62-3.61-5.42-8-5.42-13.17s1.8-9.55,5.42-13.17c3.61-3.61,8-5.42,13.17-5.42h163.09c5.16,0,9.55,1.81,13.17,5.42,3.61,3.62,5.42,8,5.42,13.17v58.64c0,5.61-1.7,10.11-5.09,13.5l-71.03,70.59c-3.69,3.25-5.53,7.52-5.53,12.83Z"/>
    </g>
    <g>
      <polyline class="cls-4" points="298.5 419.5 298.5 324.7 298.5 219.5"/>
      <polyline class="cls-4" points="298.5 568.5 298.5 660.4 298.5 768.5"/>
    </g>
    <circle class="cls-3" cx="298.5" cy="494.5" r="75"/>
  </g>
  <path class="cls-5" d="m100,784.06V199c0-55.23,44.77-100,100-100h599.82c55.23,0,100,44.77,100,100v501.58c0,29.29-12.84,57.11-35.14,76.11l-30.35,25.86-84.8,72.51c-18.11,15.49-41.16,24-64.99,24H215c-63.51,0-115-51.49-115-115Z"/>
</svg>